<svg width="19" height="16" viewBox="0 0 19 16" fill="none" xmlns="http://www.w3.org/2000/svg">
<g clip-path="url(#clip0_29_629)">
<path d="M18.0812 3.24375L16.2906 0.409375C16.1312 0.15625 15.8468 0 15.5437 0H4.39368C4.09056 0 3.80618 0.15625 3.64681 0.409375L1.85306 3.24375C0.928056 4.70625 1.74681 6.74062 3.47493 6.975C3.59993 6.99062 3.72806 7 3.85306 7C4.66868 7 5.39368 6.64375 5.89056 6.09375C6.38743 6.64375 7.11243 7 7.92806 7C8.74368 7 9.46868 6.64375 9.96556 6.09375C10.4624 6.64375 11.1874 7 12.0031 7C12.8218 7 13.5437 6.64375 14.0406 6.09375C14.5406 6.64375 15.2624 7 16.0781 7C16.2062 7 16.3312 6.99062 16.4562 6.975C18.1906 6.74375 19.0124 4.70938 18.0843 3.24375H18.0812ZM16.5843 7.96562H16.5812C16.4156 7.9875 16.2468 8 16.0749 8C15.6874 8 15.3156 7.94062 14.9687 7.83437V12H4.96868V7.83125C4.61868 7.94063 4.24368 8 3.85618 8C3.68431 8 3.51243 7.9875 3.34681 7.96562H3.34368C3.21556 7.94687 3.09056 7.925 2.96868 7.89375V12V14C2.96868 15.1031 3.86556 16 4.96868 16H14.9687C16.0718 16 16.9687 15.1031 16.9687 14V12V7.89375C16.8437 7.925 16.7187 7.95 16.5843 7.96562Z" fill="#4B5563"/>
</g>
<defs>
<clipPath id="clip0_29_629">
<path d="M0.96875 0H18.9688V16H0.96875V0Z" fill="white"/>
</clipPath>
</defs>
</svg>
