<svg width="20" height="26" viewBox="0 0 20 26" fill="none" xmlns="http://www.w3.org/2000/svg">
<g clip-path="url(#clip0_59_1031)">
<path d="M10.9973 2.27777C10.9973 1.92543 11.0048 1.57701 10.9958 1.22858C10.9786 0.579381 10.5751 0.141113 10.0052 0.141113C9.4345 0.141113 9.0303 0.576256 9.01305 1.22624C9.0033 1.57466 9.01155 1.92387 9.01155 2.19183C8.2294 2.49338 7.46599 2.68869 6.79558 3.06446C4.44762 4.38082 3.15853 6.44638 3.02655 9.23848C2.96806 10.4853 3.0258 11.7384 2.95756 12.9845C2.85482 14.8696 2.05017 16.4164 0.713089 17.6749C0.0126762 18.3343 -0.182301 19.1436 0.173906 19.9171C0.521112 20.6709 1.12929 20.9803 1.90544 20.9819C3.0048 20.9842 4.10491 20.9819 5.20428 20.9819C9.46524 20.9819 13.7262 20.9819 17.9879 20.9819C18.4454 20.9819 18.8833 20.9209 19.268 20.6319C20.1912 19.9358 20.2564 18.5866 19.3768 17.7577C18.6343 17.0586 18.0262 16.2625 17.607 15.3149C17.1705 14.3289 17.0086 13.2845 16.9951 12.2056C16.9793 10.9439 17.0468 9.6705 16.9043 8.42367C16.5684 5.47142 14.2691 2.98556 11.466 2.39807C11.3213 2.36761 11.1788 2.32308 10.9966 2.27542L10.9973 2.27777Z" fill="#01A800"/>
<path d="M6.35089 22.0388C6.72659 23.8645 8.2399 25.1411 10.0044 25.1411C11.7675 25.1411 13.2883 23.8583 13.6572 22.0388H6.35089Z" fill="#01A800"/>
</g>
<defs>
<clipPath id="clip0_59_1031">
<rect width="20" height="25" fill="white" transform="matrix(-1 0 0 1 20 0.141113)"/>
</clipPath>
</defs>
</svg>
