<svg width="21" height="16" viewBox="0 0 21 16" fill="none" xmlns="http://www.w3.org/2000/svg">
<g clip-path="url(#clip0_29_644)">
<path d="M5.20312 0C5.86617 0 6.50205 0.263392 6.97089 0.732233C7.43973 1.20107 7.70312 1.83696 7.70312 2.5C7.70312 3.16304 7.43973 3.79893 6.97089 4.26777C6.50205 4.73661 5.86617 5 5.20312 5C4.54008 5 3.9042 4.73661 3.43536 4.26777C2.96652 3.79893 2.70312 3.16304 2.70312 2.5C2.70312 1.83696 2.96652 1.20107 3.43536 0.732233C3.9042 0.263392 4.54008 0 5.20312 0ZM16.7031 0C17.3662 0 18.0021 0.263392 18.4709 0.732233C18.9397 1.20107 19.2031 1.83696 19.2031 2.5C19.2031 3.16304 18.9397 3.79893 18.4709 4.26777C18.0021 4.73661 17.3662 5 16.7031 5C16.0401 5 15.4042 4.73661 14.9354 4.26777C14.4665 3.79893 14.2031 3.16304 14.2031 2.5C14.2031 1.83696 14.4665 1.20107 14.9354 0.732233C15.4042 0.263392 16.0401 0 16.7031 0ZM0.703125 9.33438C0.703125 7.49375 2.19687 6 4.0375 6H5.37187C5.86875 6 6.34062 6.10938 6.76562 6.30312C6.725 6.52812 6.70625 6.7625 6.70625 7C6.70625 8.19375 7.23125 9.26562 8.05937 10C8.05312 10 8.04688 10 8.0375 10H1.36875C1.00312 10 0.703125 9.7 0.703125 9.33438ZM13.3687 10C13.3625 10 13.3562 10 13.3469 10C14.1781 9.26562 14.7 8.19375 14.7 7C14.7 6.7625 14.6781 6.53125 14.6406 6.30312C15.0656 6.10625 15.5375 6 16.0344 6H17.3687C19.2094 6 20.7031 7.49375 20.7031 9.33438C20.7031 9.70312 20.4031 10 20.0375 10H13.3687ZM7.70312 7C7.70312 6.20435 8.0192 5.44129 8.5818 4.87868C9.14441 4.31607 9.90748 4 10.7031 4C11.4988 4 12.2618 4.31607 12.8244 4.87868C13.3871 5.44129 13.7031 6.20435 13.7031 7C13.7031 7.79565 13.3871 8.55871 12.8244 9.12132C12.2618 9.68393 11.4988 10 10.7031 10C9.90748 10 9.14441 9.68393 8.5818 9.12132C8.0192 8.55871 7.70312 7.79565 7.70312 7ZM4.70312 15.1656C4.70312 12.8656 6.56875 11 8.86875 11H12.5375C14.8375 11 16.7031 12.8656 16.7031 15.1656C16.7031 15.625 16.3312 16 15.8687 16H5.5375C5.07812 16 4.70312 15.6281 4.70312 15.1656Z" fill="#4B5563"/>
</g>
<defs>
<clipPath id="clip0_29_644">
<path d="M0.703125 0H20.7031V16H0.703125V0Z" fill="white"/>
</clipPath>
</defs>
</svg>
