<svg width="15" height="16" viewBox="0 0 15 16" fill="none" xmlns="http://www.w3.org/2000/svg">
<g clip-path="url(#clip0_29_638)">
<g clip-path="url(#clip1_29_638)">
<path d="M7.84375 8C8.90462 8 9.92203 7.57857 10.6722 6.82843C11.4223 6.07828 11.8438 5.06087 11.8438 4C11.8438 2.93913 11.4223 1.92172 10.6722 1.17157C9.92203 0.421427 8.90462 0 7.84375 0C6.78288 0 5.76547 0.421427 5.01532 1.17157C4.26518 1.92172 3.84375 2.93913 3.84375 4C3.84375 5.06087 4.26518 6.07828 5.01532 6.82843C5.76547 7.57857 6.78288 8 7.84375 8ZM4.84375 9.725C2.53125 10.4031 0.84375 12.5406 0.84375 15.0719C0.84375 15.5844 1.25938 16 1.77188 16H13.9156C14.4281 16 14.8438 15.5844 14.8438 15.0719C14.8438 12.5406 13.1562 10.4031 10.8438 9.725V11.3125C11.7063 11.5344 12.3438 12.3188 12.3438 13.25V14.5C12.3438 14.775 12.1187 15 11.8438 15H11.3438C11.0688 15 10.8438 14.775 10.8438 14.5C10.8438 14.225 11.0688 14 11.3438 14V13.25C11.3438 12.6969 10.8969 12.25 10.3438 12.25C9.79062 12.25 9.34375 12.6969 9.34375 13.25V14C9.61875 14 9.84375 14.225 9.84375 14.5C9.84375 14.775 9.61875 15 9.34375 15H8.84375C8.56875 15 8.34375 14.775 8.34375 14.5V13.25C8.34375 12.3188 8.98125 11.5344 9.84375 11.3125V9.52812C9.65625 9.50937 9.46563 9.5 9.27188 9.5H6.41563C6.22188 9.5 6.03125 9.50937 5.84375 9.52812V11.5719C6.56563 11.7875 7.09375 12.4563 7.09375 13.25C7.09375 14.2156 6.30937 15 5.34375 15C4.37812 15 3.59375 14.2156 3.59375 13.25C3.59375 12.4563 4.12188 11.7875 4.84375 11.5719V9.725ZM5.34375 14C5.54266 14 5.73343 13.921 5.87408 13.7803C6.01473 13.6397 6.09375 13.4489 6.09375 13.25C6.09375 13.0511 6.01473 12.8603 5.87408 12.7197C5.73343 12.579 5.54266 12.5 5.34375 12.5C5.14484 12.5 4.95407 12.579 4.81342 12.7197C4.67277 12.8603 4.59375 13.0511 4.59375 13.25C4.59375 13.4489 4.67277 13.6397 4.81342 13.7803C4.95407 13.921 5.14484 14 5.34375 14Z" fill="#4B5563"/>
</g>
</g>
<defs>
<clipPath id="clip0_29_638">
<rect width="14" height="16" fill="white" transform="translate(0.84375)"/>
</clipPath>
<clipPath id="clip1_29_638">
<path d="M0.84375 0H14.8438V16H0.84375V0Z" fill="white"/>
</clipPath>
</defs>
</svg>
