<svg width="20" height="21" viewBox="0 0 20 21" fill="none" xmlns="http://www.w3.org/2000/svg">
<path d="M19.3594 20.5H0.296875V0.5H19.3594V20.5Z" stroke="#E5E7EB"/>
<g clip-path="url(#clip0_66_1411)">
<path d="M19.3594 10.7266C19.3594 16.2539 15.5742 20.1875 9.98438 20.1875C4.625 20.1875 0.296875 15.8594 0.296875 10.5C0.296875 5.14062 4.625 0.8125 9.98438 0.8125C12.5938 0.8125 14.7891 1.76953 16.4805 3.34766L13.8438 5.88281C10.3945 2.55469 3.98047 5.05469 3.98047 10.5C3.98047 13.8789 6.67969 16.6172 9.98438 16.6172C13.8203 16.6172 15.2578 13.8672 15.4844 12.4414H9.98438V9.10938H19.207C19.2969 9.60547 19.3594 10.082 19.3594 10.7266Z" fill="#111827"/>
</g>
<defs>
<clipPath id="clip0_66_1411">
<path d="M0.296875 0.5H19.3594V20.5H0.296875V0.5Z" fill="white"/>
</clipPath>
</defs>
</svg>
