<svg width="19" height="16" viewBox="0 0 19 16" fill="none" xmlns="http://www.w3.org/2000/svg">
<g clip-path="url(#clip0_29_624)">
<path d="M18.9312 7.98438C18.9312 8.54688 18.4625 8.9875 17.9312 8.9875H16.9312L16.9531 13.9937C16.9531 14.0781 16.9469 14.1625 16.9375 14.2469V14.75C16.9375 15.4406 16.3781 16 15.6875 16H15.1875C15.1531 16 15.1188 16 15.0844 15.9969C15.0406 16 14.9969 16 14.9531 16H13.9375H13.1875C12.4969 16 11.9375 15.4406 11.9375 14.75V14V12C11.9375 11.4469 11.4906 11 10.9375 11H8.9375C8.38438 11 7.9375 11.4469 7.9375 12V14V14.75C7.9375 15.4406 7.37813 16 6.6875 16H5.9375H4.94063C4.89375 16 4.84687 15.9969 4.8 15.9937C4.7625 15.9969 4.725 16 4.6875 16H4.1875C3.49688 16 2.9375 15.4406 2.9375 14.75V11.25C2.9375 11.2219 2.9375 11.1906 2.94062 11.1625V8.9875H1.9375C1.375 8.9875 0.9375 8.55 0.9375 7.98438C0.9375 7.70312 1.03125 7.45312 1.25 7.23438L9.2625 0.25C9.48125 0.03125 9.73125 0 9.95 0C10.1687 0 10.4187 0.0625 10.6062 0.21875L18.5875 7.23438C18.8375 7.45312 18.9625 7.70312 18.9312 7.98438Z" fill="#4B5563"/>
</g>
<defs>
<clipPath id="clip0_29_624">
<path d="M0.9375 0H18.9375V16H0.9375V0Z" fill="white"/>
</clipPath>
</defs>
</svg>
