<svg width="18" height="24" viewBox="0 0 18 24" fill="none" xmlns="http://www.w3.org/2000/svg">
<g filter="url(#filter0_d_59_1054)">
<path d="M9.21875 24.0001C7.32866 23.989 5.66637 23.5436 4.16106 22.5936C2.01137 21.2382 0.704103 19.311 0.186945 16.8702C0.0915165 16.4198 0.0432894 15.9573 0.00942783 15.4978C-0.0429037 14.7655 0.119221 14.0562 0.323417 13.3579C0.680503 12.141 1.21203 10.9964 1.81641 9.87978C2.8774 7.91949 4.08821 6.04949 5.39752 4.24169C6.32307 2.96459 7.2907 1.71759 8.24498 0.460559C8.34451 0.329138 8.46662 0.200726 8.60719 0.114449C8.95197 -0.0972303 9.3583 -0.0139632 9.63433 0.31108C9.84673 0.560881 10.0458 0.820715 10.2479 1.07854C12.0046 3.33077 13.671 5.64419 15.1538 8.08C15.8967 9.29992 16.5903 10.5439 17.1393 11.8611C17.4861 12.6948 17.7816 13.5445 17.9304 14.4354C18.0217 14.9852 18.0187 15.5379 17.9479 16.0907C17.8391 16.9495 17.6462 17.7882 17.2881 18.5817C16.0567 21.3175 13.9491 23.039 10.9867 23.7613C10.7107 23.8285 10.4285 23.8747 10.1464 23.9098C9.80466 23.9529 9.46092 23.974 9.21773 23.9961L9.21875 24.0001ZM9.08844 20.0033C9.33368 19.9802 9.58302 19.9742 9.82518 19.932C11.2987 19.6772 12.4079 18.8987 13.2031 17.6708C13.6854 16.9254 13.907 16.1078 13.906 15.2309C13.906 14.7645 13.5448 14.3933 13.1077 14.3903C12.6254 14.3862 12.2961 14.7203 12.2683 15.2089C12.253 15.4737 12.2232 15.7426 12.1555 15.9974C11.7789 17.4129 10.5075 18.363 8.96736 18.3941C8.61027 18.4011 8.29218 18.6589 8.20804 18.989C8.06951 19.5287 8.53434 20.0544 9.08946 20.0033H9.08844Z" fill="white"/>
</g>
<defs>
<filter id="filter0_d_59_1054" x="-4.00049" y="-0.0020752" width="26.0005" height="32.0022" filterUnits="userSpaceOnUse" color-interpolation-filters="sRGB">
<feFlood flood-opacity="0" result="BackgroundImageFix"/>
<feColorMatrix in="SourceAlpha" type="matrix" values="0 0 0 0 0 0 0 0 0 0 0 0 0 0 0 0 0 0 127 0" result="hardAlpha"/>
<feOffset dy="4"/>
<feGaussianBlur stdDeviation="2"/>
<feComposite in2="hardAlpha" operator="out"/>
<feColorMatrix type="matrix" values="0 0 0 0 0 0 0 0 0 0 0 0 0 0 0 0 0 0 0.25 0"/>
<feBlend mode="normal" in2="BackgroundImageFix" result="effect1_dropShadow_59_1054"/>
<feBlend mode="normal" in="SourceGraphic" in2="effect1_dropShadow_59_1054" result="shape"/>
</filter>
</defs>
</svg>
