<svg width="24" height="24" viewBox="0 0 24 24" fill="none" xmlns="http://www.w3.org/2000/svg">
<g clip-path="url(#clip0_59_1135)">
<path d="M0 9.87765C0 7.36168 0 4.84665 0 2.33162C0 1.8811 0.0630218 1.4428 0.305703 1.05059C0.689477 0.431712 1.24162 0.0799467 1.97155 0.0244543C2.21611 0.0056433 2.46255 0.0018811 2.70805 0.000940549C4.85267 0 6.9973 0 9.14098 0C9.64609 0 10.1258 0.0912333 10.5481 0.39315C11.0561 0.756202 11.3543 1.24905 11.4342 1.86323C11.6073 3.19034 11.7663 4.51934 11.9318 5.8474C12.0776 7.0165 12.2243 8.1856 12.3692 9.35565C12.5056 10.4514 12.6382 11.5481 12.7755 12.6438C12.9195 13.7941 13.0662 14.9434 13.2092 16.0937C13.3164 16.9534 13.418 17.8131 13.5233 18.6737C13.5337 18.7546 13.5374 18.8373 13.5544 18.9173C13.6325 19.2775 13.4274 19.5183 13.2063 19.7525C13.1904 19.7694 13.1584 19.7741 13.132 19.7798C13.1095 19.7845 13.085 19.7816 13.0615 19.7816C9.4796 19.7816 5.89865 19.7816 2.31675 19.7816C1.74203 19.7816 1.2087 19.6575 0.760964 19.2728C0.330159 18.9022 0.079953 18.4338 0.0263375 17.8676C0.00564374 17.6466 0 17.4237 0 17.2008C0 14.7591 0 12.3184 0 9.87765ZM3.50476 12.7143C3.51511 12.7999 3.51605 12.8554 3.52828 12.9081C3.60447 13.2411 3.87725 13.4546 4.22246 13.4564C4.56673 13.4583 4.83857 13.2476 4.91382 12.8912C5.06337 12.182 5.20259 11.47 5.33898 10.758C5.35497 10.6743 5.37942 10.6442 5.4622 10.6442C6.05197 10.6461 6.64174 10.6451 7.23151 10.6433C7.3124 10.6433 7.34909 10.6734 7.36414 10.7552C7.40553 10.9894 7.4535 11.2226 7.50053 11.4559C7.60118 11.9525 7.6943 12.451 7.80717 12.9448C7.87678 13.2486 8.12604 13.4292 8.44774 13.4508C8.73651 13.4705 8.9933 13.305 9.1231 13.037C9.23598 12.8018 9.17484 12.5695 9.12875 12.3381C8.83716 10.8737 8.54368 9.4102 8.24927 7.94576C8.09406 7.17357 7.94544 6.40044 7.78084 5.63013C7.69148 5.21064 7.44597 5.01971 7.01799 5.01501C6.56931 5.00937 6.11969 5.01219 5.67102 5.01971C5.24774 5.02724 5.00976 5.21629 4.9204 5.63389C4.77272 6.32802 4.63821 7.02496 4.499 7.72003C4.21964 9.1111 3.94121 10.5031 3.66279 11.8942C3.60635 12.1773 3.55367 12.4604 3.50476 12.7153V12.7143Z" fill="#02A601"/>
<path d="M11.3901 24C11.5068 23.8655 11.6027 23.7554 11.6996 23.6444C12.4662 22.7631 13.2319 21.8818 13.9985 21.0015C14.165 20.8106 14.3409 20.6262 14.5008 20.4296C14.9118 19.9255 15.0435 19.3405 14.9673 18.7056C14.8413 17.6522 14.7058 16.5988 14.5741 15.5463C14.4293 14.3885 14.2816 13.2316 14.1377 12.0738C14.0248 11.168 13.9148 10.2614 13.8019 9.35561C13.6646 8.2561 13.5254 7.1566 13.3871 6.0571C13.3156 5.49183 13.246 4.92656 13.1736 4.36129C13.1651 4.29639 13.183 4.26629 13.2526 4.26723C13.3852 4.27005 13.5178 4.26911 13.6514 4.26911C16.3275 4.26911 19.0026 4.26911 21.6787 4.26911C22.1603 4.26911 22.6202 4.34812 23.0238 4.63123C23.6051 5.03942 23.9324 5.59623 23.9785 6.30917C23.9935 6.53866 23.9992 6.76909 23.9992 6.99953C24.0001 11.8509 24.0001 16.7022 23.9992 21.5536C23.9992 21.8894 23.9851 22.2242 23.8797 22.5487C23.6211 23.3425 22.8704 23.9294 22.0408 23.9764C21.7915 23.9906 21.5413 23.999 21.2921 23.999C18.046 24.0009 14.7999 24 11.5547 24H11.3911H11.3901ZM19.0242 16.1464C19.4174 16.4652 19.8002 16.7803 20.1878 17.0888C20.4041 17.2609 20.6186 17.4396 20.8528 17.5854C21.1529 17.7716 21.5564 17.671 21.7614 17.3888C21.9721 17.0992 21.9298 16.6994 21.6617 16.4549C21.6128 16.4107 21.5602 16.3702 21.5084 16.3279C21.0466 15.9564 20.5847 15.5849 20.1229 15.2124C20.0909 15.1861 20.0627 15.155 20.0363 15.1296C20.042 15.1099 20.0429 15.1024 20.0467 15.0958C20.0599 15.076 20.074 15.0572 20.0881 15.0393C20.7907 14.1637 21.3476 13.21 21.6824 12.1321C21.6928 12.0982 21.7417 12.0682 21.7793 12.054C21.8179 12.0399 21.864 12.0484 21.9072 12.0456C22.3569 12.0136 22.656 11.6355 22.5704 11.2085C22.5055 10.8831 22.2365 10.647 21.8997 10.6442C21.2206 10.6376 20.5405 10.6385 19.8614 10.6413C19.7645 10.6413 19.7316 10.6122 19.7353 10.5144C19.7419 10.315 19.741 10.1156 19.7353 9.91711C19.7231 9.52679 19.4296 9.23804 19.0478 9.23333C18.648 9.22863 18.3442 9.50892 18.3282 9.91053C18.3197 10.1127 18.3254 10.3168 18.331 10.52C18.3329 10.6075 18.3131 10.6517 18.2144 10.6423C18.125 10.6338 18.0347 10.6413 17.9453 10.6413C17.3593 10.6413 16.7733 10.6357 16.1883 10.6442C15.8967 10.6489 15.6822 10.7993 15.5703 11.0693C15.3746 11.5433 15.6935 12.0305 16.2052 12.0493C16.4375 12.0578 16.3943 12.0343 16.4667 12.2469C16.7903 13.2043 17.2427 14.0932 17.8654 14.8926C17.9105 14.9509 17.9613 15.0074 17.9961 15.0713C18.0102 15.0977 18.0046 15.1588 17.9848 15.1757C17.7027 15.4212 17.4177 15.6658 17.1289 15.9047C16.8918 16.1012 16.6332 16.2752 16.4121 16.4887C16.097 16.7925 16.1694 17.3164 16.5382 17.5534C16.7997 17.7218 17.1148 17.718 17.3687 17.5186C17.7525 17.2177 18.1269 16.9035 18.5031 16.5931C18.68 16.4473 18.853 16.2959 19.0261 16.1483L19.0242 16.1464Z" fill="#02A601"/>
<path d="M8.2275 21.1953H11.8912C11.7633 21.3364 11.6495 21.4615 11.5347 21.5875C10.9139 22.2722 10.2931 22.9579 9.67042 23.6416C9.51428 23.8128 9.55848 23.7884 9.38917 23.6868C8.74296 23.3012 8.3987 22.7246 8.31874 21.9816C8.29523 21.7605 8.26419 21.5405 8.23785 21.3194C8.23315 21.2818 8.23127 21.2432 8.22656 21.1943L8.2275 21.1953Z" fill="#02A601"/>
<path d="M7.04631 9.21827H5.65137C5.74167 8.76493 5.83009 8.32663 5.91662 7.88739C6.00786 7.42841 6.09628 6.96942 6.19128 6.51231C6.19881 6.47845 6.25054 6.43236 6.28629 6.4286C6.48382 6.40791 6.49605 6.4192 6.53179 6.59696C6.7011 7.44534 6.86947 8.29371 7.03785 9.14209C7.04255 9.16466 7.04255 9.18723 7.04631 9.21827Z" fill="#02A601"/>
<path d="M17.8955 12.0579H20.2123C19.9301 12.8009 19.52 13.4489 19.0327 14.0697C18.5492 13.4546 18.1739 12.7887 17.8955 12.0579Z" fill="#02A601"/>
</g>
<defs>
<clipPath id="clip0_59_1135">
<rect width="24" height="24" fill="white"/>
</clipPath>
</defs>
</svg>
