<svg width="21" height="21" viewBox="0 0 21 21" fill="none" xmlns="http://www.w3.org/2000/svg">
<g clip-path="url(#clip0_66_1425)">
<path d="M3.04688 4.875C2.70312 4.875 2.42188 5.15625 2.42188 5.5V6.36328L9.16016 11.8945C9.96875 12.5586 11.1289 12.5586 11.9375 11.8945L18.6719 6.36328V5.5C18.6719 5.15625 18.3906 4.875 18.0469 4.875H3.04688ZM2.42188 8.78906V15.5C2.42188 15.8438 2.70312 16.125 3.04688 16.125H18.0469C18.3906 16.125 18.6719 15.8438 18.6719 15.5V8.78906L13.125 13.3438C11.625 14.5742 9.46484 14.5742 7.96875 13.3438L2.42188 8.78906ZM0.546875 5.5C0.546875 4.12109 1.66797 3 3.04688 3H18.0469C19.4258 3 20.5469 4.12109 20.5469 5.5V15.5C20.5469 16.8789 19.4258 18 18.0469 18H3.04688C1.66797 18 0.546875 16.8789 0.546875 15.5V5.5Z" fill="#111827"/>
</g>
<defs>
<clipPath id="clip0_66_1425">
<path d="M0.546875 0.5H20.5469V20.5H0.546875V0.5Z" fill="white"/>
</clipPath>
</defs>
</svg>
