<svg width="17" height="23" viewBox="0 0 17 23" fill="none" xmlns="http://www.w3.org/2000/svg">
<path d="M16.5 22.5H0V0.5H16.5V22.5Z" stroke="#AEAEAE"/>
<g clip-path="url(#clip0_66_1407)">
<path d="M0.6875 3.25C0.6875 1.7332 1.9207 0.5 3.4375 0.5H13.0625C14.5793 0.5 15.8125 1.7332 15.8125 3.25V19.75C15.8125 21.2668 14.5793 22.5 13.0625 22.5H3.4375C1.9207 22.5 0.6875 21.2668 0.6875 19.75V3.25ZM9.625 19.75C9.625 19.3853 9.48013 19.0356 9.22227 18.7777C8.96441 18.5199 8.61467 18.375 8.25 18.375C7.88533 18.375 7.53559 18.5199 7.27773 18.7777C7.01987 19.0356 6.875 19.3853 6.875 19.75C6.875 20.1147 7.01987 20.4644 7.27773 20.7223C7.53559 20.9801 7.88533 21.125 8.25 21.125C8.61467 21.125 8.96441 20.9801 9.22227 20.7223C9.48013 20.4644 9.625 20.1147 9.625 19.75ZM13.0625 3.25H3.4375V17H13.0625V3.25Z" fill="#9CA3AF"/>
</g>
<defs>
<clipPath id="clip0_66_1407">
<path d="M0 0.5H16.5V22.5H0V0.5Z" fill="white"/>
</clipPath>
</defs>
</svg>
