<svg width="26" height="19" viewBox="0 0 26 19" fill="none" xmlns="http://www.w3.org/2000/svg">
<path d="M9.52051 0.58606C11.8528 0.233767 13.7731 0.970662 15.3467 2.73938V2.7384C15.3899 2.78741 15.4233 2.82676 15.4502 2.86047L15.5127 2.95032C15.5778 3.06506 15.6945 3.20528 15.8945 3.26379C16.0567 3.31109 16.2061 3.27875 16.248 3.27063L16.2471 3.26965C16.4998 3.22104 16.723 3.1748 16.9414 3.1427L17.1592 3.11633C17.8944 3.04686 18.6016 3.2074 19.2891 3.53918C20.6658 4.20462 21.4452 5.30952 21.7354 6.82922C21.8262 7.30453 21.8288 7.76368 21.7227 8.21594V8.21692C21.7057 8.28992 21.6918 8.39872 21.7256 8.52063C21.7631 8.65577 21.8444 8.75607 21.9326 8.82141C22.0081 8.87725 22.0818 8.9028 22.1104 8.91223C22.1264 8.91754 22.142 8.92234 22.1475 8.92395C22.1495 8.92456 22.1513 8.92461 22.1523 8.92493C22.478 9.03849 22.6939 9.09025 22.9297 9.19934H22.9307C24.3157 9.83682 25.1282 10.9163 25.4209 12.4122C25.8337 14.5195 24.6082 16.747 22.2969 17.424C21.8897 17.5427 21.4758 17.6065 21.0547 17.6066L13.4883 17.6056L13.4873 17.6036H13.1777C10.5491 17.6036 7.92795 17.6159 5.30469 17.5997C2.98146 17.5854 1.07991 16.0172 0.617188 13.8214L0.577148 13.6066C0.276136 11.7835 0.87402 10.2937 2.28125 9.07239C2.73236 8.68113 3.26798 8.42268 3.87207 8.23157L3.87402 8.23059C3.90223 8.2215 4.06735 8.17594 4.19238 8.04114C4.3572 7.86332 4.36538 7.65023 4.34473 7.50989L4.34375 7.505C4.19494 6.55095 4.32641 5.61262 4.65137 4.67688C4.96715 3.76621 5.46586 2.96724 6.14941 2.30188C7.04104 1.43354 8.08196 0.857171 9.2793 0.627075L9.52051 0.58606Z" fill="white"/>
<path d="M9.52051 0.58606C11.8528 0.233767 13.7731 0.970662 15.3467 2.73938V2.7384C15.3899 2.78741 15.4233 2.82676 15.4502 2.86047L15.5127 2.95032C15.5778 3.06506 15.6945 3.20528 15.8945 3.26379C16.0567 3.31109 16.2061 3.27875 16.248 3.27063L16.2471 3.26965C16.4998 3.22104 16.723 3.1748 16.9414 3.1427L17.1592 3.11633C17.8944 3.04686 18.6016 3.2074 19.2891 3.53918C20.6658 4.20462 21.4452 5.30952 21.7354 6.82922C21.8262 7.30453 21.8288 7.76368 21.7227 8.21594V8.21692C21.7057 8.28992 21.6918 8.39872 21.7256 8.52063C21.7631 8.65577 21.8444 8.75607 21.9326 8.82141C22.0081 8.87725 22.0818 8.9028 22.1104 8.91223C22.1264 8.91754 22.142 8.92234 22.1475 8.92395C22.1495 8.92456 22.1513 8.92461 22.1523 8.92493C22.478 9.03849 22.6939 9.09025 22.9297 9.19934H22.9307C24.3157 9.83682 25.1282 10.9163 25.4209 12.4122C25.8337 14.5195 24.6082 16.747 22.2969 17.424C21.8897 17.5427 21.4758 17.6065 21.0547 17.6066L13.4883 17.6056L13.4873 17.6036H13.1777C10.5491 17.6036 7.92795 17.6159 5.30469 17.5997C2.98146 17.5854 1.07991 16.0172 0.617188 13.8214L0.577148 13.6066C0.276136 11.7835 0.87402 10.2937 2.28125 9.07239C2.73236 8.68113 3.26798 8.42268 3.87207 8.23157L3.87402 8.23059C3.90223 8.2215 4.06735 8.17594 4.19238 8.04114C4.3572 7.86332 4.36538 7.65023 4.34473 7.50989L4.34375 7.505C4.19494 6.55095 4.32641 5.61262 4.65137 4.67688C4.96715 3.76621 5.46586 2.96724 6.14941 2.30188C7.04104 1.43354 8.08196 0.857171 9.2793 0.627075L9.52051 0.58606Z" stroke="black"/>
<path d="M9.52051 0.58606C11.8528 0.233767 13.7731 0.970662 15.3467 2.73938V2.7384C15.3899 2.78741 15.4233 2.82676 15.4502 2.86047L15.5127 2.95032C15.5778 3.06506 15.6945 3.20528 15.8945 3.26379C16.0567 3.31109 16.2061 3.27875 16.248 3.27063L16.2471 3.26965C16.4998 3.22104 16.723 3.1748 16.9414 3.1427L17.1592 3.11633C17.8944 3.04686 18.6016 3.2074 19.2891 3.53918C20.6658 4.20462 21.4452 5.30952 21.7354 6.82922C21.8262 7.30453 21.8288 7.76368 21.7227 8.21594V8.21692C21.7057 8.28992 21.6918 8.39872 21.7256 8.52063C21.7631 8.65577 21.8444 8.75607 21.9326 8.82141C22.0081 8.87725 22.0818 8.9028 22.1104 8.91223C22.1264 8.91754 22.142 8.92234 22.1475 8.92395C22.1495 8.92456 22.1513 8.92461 22.1523 8.92493C22.478 9.03849 22.6939 9.09025 22.9297 9.19934H22.9307C24.3157 9.83682 25.1282 10.9163 25.4209 12.4122C25.8337 14.5195 24.6082 16.747 22.2969 17.424C21.8897 17.5427 21.4758 17.6065 21.0547 17.6066L13.4883 17.6056L13.4873 17.6036H13.1777C10.5491 17.6036 7.92795 17.6159 5.30469 17.5997C2.98146 17.5854 1.07991 16.0172 0.617188 13.8214L0.577148 13.6066C0.276136 11.7835 0.87402 10.2937 2.28125 9.07239C2.73236 8.68113 3.26798 8.42268 3.87207 8.23157L3.87402 8.23059C3.90223 8.2215 4.06735 8.17594 4.19238 8.04114C4.3572 7.86332 4.36538 7.65023 4.34473 7.50989L4.34375 7.505C4.19494 6.55095 4.32641 5.61262 4.65137 4.67688C4.96715 3.76621 5.46586 2.96724 6.14941 2.30188C7.04104 1.43354 8.08196 0.857171 9.2793 0.627075L9.52051 0.58606Z" stroke="black" stroke-opacity="0.2"/>
<path d="M9.52051 0.58606C11.8528 0.233767 13.7731 0.970662 15.3467 2.73938V2.7384C15.3899 2.78741 15.4233 2.82676 15.4502 2.86047L15.5127 2.95032C15.5778 3.06506 15.6945 3.20528 15.8945 3.26379C16.0567 3.31109 16.2061 3.27875 16.248 3.27063L16.2471 3.26965C16.4998 3.22104 16.723 3.1748 16.9414 3.1427L17.1592 3.11633C17.8944 3.04686 18.6016 3.2074 19.2891 3.53918C20.6658 4.20462 21.4452 5.30952 21.7354 6.82922C21.8262 7.30453 21.8288 7.76368 21.7227 8.21594V8.21692C21.7057 8.28992 21.6918 8.39872 21.7256 8.52063C21.7631 8.65577 21.8444 8.75607 21.9326 8.82141C22.0081 8.87725 22.0818 8.9028 22.1104 8.91223C22.1264 8.91754 22.142 8.92234 22.1475 8.92395C22.1495 8.92456 22.1513 8.92461 22.1523 8.92493C22.478 9.03849 22.6939 9.09025 22.9297 9.19934H22.9307C24.3157 9.83682 25.1282 10.9163 25.4209 12.4122C25.8337 14.5195 24.6082 16.747 22.2969 17.424C21.8897 17.5427 21.4758 17.6065 21.0547 17.6066L13.4883 17.6056L13.4873 17.6036H13.1777C10.5491 17.6036 7.92795 17.6159 5.30469 17.5997C2.98146 17.5854 1.07991 16.0172 0.617188 13.8214L0.577148 13.6066C0.276136 11.7835 0.87402 10.2937 2.28125 9.07239C2.73236 8.68113 3.26798 8.42268 3.87207 8.23157L3.87402 8.23059C3.90223 8.2215 4.06735 8.17594 4.19238 8.04114C4.3572 7.86332 4.36538 7.65023 4.34473 7.50989L4.34375 7.505C4.19494 6.55095 4.32641 5.61262 4.65137 4.67688C4.96715 3.76621 5.46586 2.96724 6.14941 2.30188C7.04104 1.43354 8.08196 0.857171 9.2793 0.627075L9.52051 0.58606Z" stroke="black" stroke-opacity="0.2"/>
</svg>
