<svg width="27" height="24" viewBox="0 0 27 24" fill="none" xmlns="http://www.w3.org/2000/svg">
<g clip-path="url(#clip0_39_978)">
<g clip-path="url(#clip1_39_978)">
<path d="M25.6686 4.86563L22.9827 0.614063C22.7436 0.234375 22.3171 0 21.8624 0H5.1374C4.68271 0 4.25615 0.234375 4.01708 0.614063L1.32646 4.86563C-0.0610412 7.05938 1.16708 10.1109 3.75927 10.4625C3.94677 10.4859 4.13896 10.5 4.32646 10.5C5.5499 10.5 6.6374 9.96562 7.38271 9.14062C8.12802 9.96562 9.21552 10.5 10.439 10.5C11.6624 10.5 12.7499 9.96562 13.4952 9.14062C14.2405 9.96562 15.328 10.5 16.5515 10.5C17.7796 10.5 18.8624 9.96562 19.6077 9.14062C20.3577 9.96562 21.4405 10.5 22.664 10.5C22.8561 10.5 23.0436 10.4859 23.2311 10.4625C25.8327 10.1156 27.0655 7.06406 25.6733 4.86563H25.6686ZM23.4233 11.9484H23.4186C23.1702 11.9812 22.9171 12 22.6593 12C22.078 12 21.5202 11.9109 20.9999 11.7516V18H5.9999V11.7469C5.4749 11.9109 4.9124 12 4.33115 12C4.07333 12 3.81552 11.9812 3.56708 11.9484H3.5624C3.37021 11.9203 3.18271 11.8875 2.9999 11.8406V18V21C2.9999 22.6547 4.34521 24 5.9999 24H20.9999C22.6546 24 23.9999 22.6547 23.9999 21V18V11.8406C23.8124 11.8875 23.6249 11.925 23.4233 11.9484Z" fill="#4F46E5"/>
</g>
</g>
<defs>
<clipPath id="clip0_39_978">
<rect width="27" height="24" fill="white"/>
</clipPath>
<clipPath id="clip1_39_978">
<path d="M0 0H27V24H0V0Z" fill="white"/>
</clipPath>
</defs>
</svg>
