<svg width="17" height="16" viewBox="0 0 17 16" fill="none" xmlns="http://www.w3.org/2000/svg">
<g clip-path="url(#clip0_29_633)">
<g clip-path="url(#clip1_29_633)">
<path d="M7.65943 0.13125C7.96568 -0.04375 8.3438 -0.04375 8.65318 0.13125L14.0219 3.19688L14.1563 3.25V3.27813L15.6532 4.13438C16.0469 4.35938 16.2407 4.82188 16.1251 5.25938C16.0094 5.69688 15.6126 6.00313 15.1594 6.00313H1.1563C0.703177 6.00313 0.306302 5.69688 0.190677 5.25938C0.0750523 4.82188 0.268802 4.35938 0.662552 4.13438L2.1563 3.27813V3.25L2.2938 3.2L7.65943 0.13125ZM2.1563 7H4.1563V13H5.4063V7H7.4063V13H8.9063V7H10.9063V13H12.1563V7H14.1563V13.1344C14.1751 13.1437 14.1938 13.1562 14.2126 13.1687L15.7126 14.1687C16.0782 14.4125 16.2438 14.8687 16.1157 15.2906C15.9876 15.7125 15.5969 16 15.1563 16H1.1563C0.715677 16 0.328177 15.7125 0.200052 15.2906C0.0719273 14.8687 0.234427 14.4125 0.603177 14.1687L2.10318 13.1687C2.12193 13.1562 2.14068 13.1469 2.15943 13.1344V7H2.1563Z" fill="#111827"/>
</g>
</g>
<defs>
<clipPath id="clip0_29_633">
<rect width="16" height="16" fill="white" transform="translate(0.15625)"/>
</clipPath>
<clipPath id="clip1_29_633">
<path d="M0.15625 0H16.1562V16H0.15625V0Z" fill="white"/>
</clipPath>
</defs>
</svg>
