<svg width="128" height="128" viewBox="0 0 128 128" fill="none" xmlns="http://www.w3.org/2000/svg">
<circle cx="64" cy="64" r="64" fill="#01A701" fill-opacity="0.13"/>
<circle cx="64" cy="64" r="54.6909" fill="#01A701" fill-opacity="0.13"/>
<circle cx="64.0001" cy="64" r="43.0545" fill="#01A701" fill-opacity="0.25"/>
<circle cx="64" cy="64" r="31.4182" fill="url(#paint0_linear_59_1147)"/>
<g clip-path="url(#clip0_59_1147)">
<path d="M70.8986 58.2996C70.8986 59.7079 70.9247 61.1175 70.8908 62.5258C70.8583 63.8976 70.4156 65.1506 69.6215 66.2679C68.4146 67.9659 66.7573 68.9266 64.7029 69.1393C62.3009 69.3873 60.3051 68.5324 58.7298 66.7156C57.6128 65.426 57.0933 63.8924 57.0868 62.1904C57.0777 59.6218 57.0451 57.0531 57.1024 54.4858C57.1558 52.1012 58.2273 50.2217 60.1853 48.8656C61.1982 48.1647 62.3374 47.7888 63.5624 47.7222C65.6858 47.6061 67.515 48.3069 68.9888 49.8471C70.0212 50.9252 70.6461 52.2278 70.8335 53.7209C70.8856 54.1282 70.9051 54.5419 70.9091 54.9517C70.9195 56.0677 70.913 57.1836 70.913 58.2996C70.9091 58.2996 70.9038 58.2996 70.8999 58.2996H70.8986Z" fill="white"/>
<path d="M62.612 76.8387C62.612 76.1561 62.6094 75.4734 62.6146 74.7908C62.6146 74.6864 62.5807 74.6498 62.4805 74.6381C60.8258 74.4397 59.2765 73.9124 57.8288 73.0914C56.0153 72.0629 54.5741 70.6442 53.4635 68.8782C53.0795 68.2674 52.7527 67.6305 52.4819 66.9622C52.0718 65.952 52.81 65.1884 53.5234 65.0618C54.078 64.9639 54.6821 65.2589 54.9529 65.794C55.1143 66.1125 55.2471 66.444 55.4099 66.7612C55.9866 67.8824 56.7756 68.8312 57.7273 69.6548C58.9979 70.7551 60.456 71.4651 62.0977 71.7875C62.9739 71.9598 63.8618 72.0029 64.7575 71.9389C66.7169 71.798 68.4601 71.1114 69.995 69.8911C71.3074 68.8495 72.3007 67.5587 72.9438 66.0055C73.1456 65.5173 73.4776 65.1884 74.0023 65.0723C74.8667 64.8804 75.9174 65.7249 75.5685 66.7651C75.3771 67.3342 75.1076 67.885 74.8108 68.4097C74.0934 69.6822 73.1977 70.8204 72.0729 71.7575C70.3466 73.1958 68.3898 74.1539 66.1675 74.5402C65.9657 74.5754 65.7639 74.6146 65.5595 74.6316C65.4098 74.6433 65.3759 74.7086 65.3759 74.8482C65.3824 76.0569 65.3837 77.2642 65.3837 78.4728C65.3837 78.6516 65.3772 78.8304 65.3629 79.0079C65.3069 79.7167 64.7093 80.2818 64.0089 80.2909C63.3267 80.3001 62.6901 79.748 62.6393 79.0484C62.5964 78.461 62.6172 77.8685 62.6107 77.2785C62.6094 77.1323 62.6107 76.9862 62.6107 76.84H62.6133L62.612 76.8387Z" fill="white"/>
</g>
<defs>
<linearGradient id="paint0_linear_59_1147" x1="51.2" y1="38.4" x2="81.4545" y2="88.4363" gradientUnits="userSpaceOnUse">
<stop stop-color="#01A701"/>
<stop offset="1" stop-color="#068106"/>
</linearGradient>
<clipPath id="clip0_59_1147">
<rect width="23.2727" height="32.5818" fill="white" transform="translate(52.3635 47.7091)"/>
</clipPath>
</defs>
</svg>
