<svg width="24" height="24" viewBox="0 0 24 24" fill="none" xmlns="http://www.w3.org/2000/svg">
<g clip-path="url(#clip0_59_1037)">
<path d="M8.44542 16.63C5.96461 16.63 3.4838 16.63 1.00393 16.63C0.486501 16.63 0.0998445 16.312 0.0123529 15.8163C-0.0685534 15.3544 0.292703 14.8465 0.758384 14.7693C0.846816 14.7552 0.93713 14.7486 1.0265 14.7486C5.89029 14.7486 10.7531 14.7468 15.6169 14.7486C16.6546 14.7486 17.6066 15.0421 18.4383 15.6686C19.3979 16.391 19.9868 17.3552 20.2239 18.5329C20.3198 19.0117 20.3471 19.4943 20.27 19.9778C20.0545 21.337 19.3988 22.4291 18.2577 23.2108C17.4825 23.7423 16.6122 24.0113 15.6781 23.9991C14.4174 23.9822 13.3036 23.5551 12.4145 22.6417C11.6262 21.8318 11.1652 20.8582 11.0833 19.72C11.0702 19.5385 11.0608 19.3503 11.0946 19.1744C11.1802 18.7323 11.5867 18.4341 12.0439 18.4473C12.4616 18.4595 12.8398 18.7907 12.9084 19.2196C12.9451 19.4501 12.9404 19.688 12.9837 19.9166C13.2255 21.1931 14.3553 22.1131 15.6545 22.1319C17.0939 22.1526 18.2266 21.0746 18.4082 19.7915C18.5455 18.8226 18.2548 17.9864 17.5144 17.3242C16.9839 16.8501 16.3658 16.6243 15.6536 16.6253C13.2509 16.63 10.8491 16.6271 8.44636 16.6271L8.44542 16.63Z" fill="white"/>
<path d="M12.1461 11.0631C14.5648 11.0631 16.9826 11.0631 19.4013 11.0631C20.693 11.0631 21.821 10.1356 22.075 8.86573C22.3741 7.36538 21.4259 5.9036 19.9244 5.61575C18.8594 5.41163 17.9516 5.72863 17.2451 6.57523C16.8217 7.08318 16.6279 7.66639 16.6138 8.32203C16.5997 8.94945 16.0108 9.3878 15.4341 9.21096C15.0089 9.08114 14.7266 8.68983 14.7473 8.21856C14.7953 7.10482 15.1707 6.11618 15.9045 5.26865C16.7446 4.29883 17.8208 3.7984 19.0843 3.70245C20.7353 3.5764 22.5482 4.41359 23.4542 6.15569C23.8831 6.98065 24.0845 7.85735 23.9688 8.78201C23.7674 10.3915 22.9744 11.6172 21.5275 12.3932C20.835 12.7638 20.0928 12.9378 19.311 12.9378C14.466 12.9397 9.62106 12.9388 4.77703 12.9388C4.23233 12.9388 3.84755 12.6293 3.76382 12.1242C3.68574 11.6548 4.03665 11.1704 4.51926 11.0885C4.61899 11.0716 4.72153 11.0641 4.82219 11.0641C7.26443 11.0631 9.70573 11.0631 12.148 11.0631H12.1461Z" fill="white"/>
<path d="M5.06886 7.37197C6.32291 7.37197 7.57696 7.36444 8.831 7.37479C9.61373 7.38137 10.2892 7.13116 10.8414 6.57993C11.4153 6.00707 11.6797 5.30816 11.6533 4.49449C11.61 3.18321 10.5912 2.08922 9.35501 1.90579C8.25619 1.74306 7.34835 2.10803 6.67664 3.00919C6.31256 3.49833 6.14416 4.05332 6.13946 4.66193C6.13664 4.98457 5.98611 5.23102 5.71517 5.40034C5.41883 5.58565 5.10555 5.61952 4.79228 5.45114C4.47147 5.279 4.2852 5.00244 4.28614 4.63747C4.28896 3.36287 4.73865 2.2623 5.64085 1.36209C6.53929 0.46564 7.63811 0.00942031 8.90532 1.37088e-05C10.0465 -0.00845223 11.0559 0.3791 11.9186 1.12787C12.8255 1.91426 13.3495 2.91418 13.4888 4.10129C13.692 5.83117 12.9027 7.72377 11.0747 8.69642C10.3729 9.06986 9.61937 9.25235 8.82442 9.25329C6.23448 9.25517 3.64359 9.25423 1.05365 9.25329C0.559749 9.25329 0.209782 9.02188 0.0554955 8.6221C-0.148652 8.09251 0.214486 7.45192 0.848565 7.38043C0.925708 7.37197 1.00473 7.37197 1.08282 7.37197C2.41119 7.37197 3.73955 7.37197 5.06792 7.37197H5.06886Z" fill="white"/>
</g>
<defs>
<clipPath id="clip0_59_1037">
<rect width="24" height="24" fill="white"/>
</clipPath>
</defs>
</svg>
